<?xml version="1.0" encoding="UTF-8"?>
<!DOCTYPE svg PUBLIC "-//W3C//DTD SVG 1.1//EN" "http://www.w3.org/Graphics/SVG/1.1/DTD/svg11.dtd">
<svg xmlns="http://www.w3.org/2000/svg" version="1.1" width="2653px" height="2401px" style="shape-rendering:geometricPrecision; text-rendering:geometricPrecision; image-rendering:optimizeQuality; fill-rule:evenodd; clip-rule:evenodd" xmlns:xlink="http://www.w3.org/1999/xlink">
<g><path style="opacity:1" fill="#6ba1dc" d="M 1287.5,-0.5 C 1313.17,-0.5 1338.83,-0.5 1364.5,-0.5C 1603.91,6.51703 1827.91,68.6837 2036.5,186C 2210,285.487 2352.83,418.32 2465,584.5C 2517.16,663.823 2558.99,748.489 2590.5,838.5C 1747.17,838.5 903.833,838.5 60.5,838.5C 115.662,684.41 198.495,547.743 309,428.5C 472.123,256.282 667.623,134.782 895.5,64C 1023.39,24.8507 1154.06,3.35072 1287.5,-0.5 Z"/></g>
<g><path style="opacity:1" fill="#6a9ddc" d="M 60.5,838.5 C 903.833,838.5 1747.17,838.5 2590.5,838.5C 2591.36,840.421 2592.03,842.421 2592.5,844.5C 1747.83,844.5 903.167,844.5 58.5,844.5C 59.3627,842.579 60.0293,840.579 60.5,838.5 Z"/></g>
<g><path style="opacity:1" fill="#6999db" d="M 58.5,844.5 C 903.167,844.5 1747.83,844.5 2592.5,844.5C 2598.24,860.709 2603.57,877.042 2608.5,893.5C 1753.5,893.5 898.5,893.5 43.5,893.5C 47.8933,876.986 52.8933,860.653 58.5,844.5 Z"/></g>
<g><path style="opacity:1" fill="#6896da" d="M 43.5,893.5 C 898.5,893.5 1753.5,893.5 2608.5,893.5C 2608.5,894.167 2608.5,894.833 2608.5,895.5C 1753.17,895.5 897.833,895.5 42.5,895.5C 42.3284,894.508 42.6618,893.842 43.5,893.5 Z"/></g>
<g><path style="opacity:1" fill="#6792d9" d="M 42.5,895.5 C 897.833,895.5 1753.17,895.5 2608.5,895.5C 2613.1,909.893 2617.1,924.56 2620.5,939.5C 1757.17,939.5 893.833,939.5 30.5,939.5C 34.1886,924.746 38.1886,910.079 42.5,895.5 Z"/></g>
<g><path style="opacity:1" fill="#658cd8" d="M 30.5,939.5 C 893.833,939.5 1757.17,939.5 2620.5,939.5C 2624,953.818 2627.33,968.152 2630.5,982.5C 1760.83,982.5 891.167,982.5 21.5,982.5C 24.1163,968.085 27.1163,953.752 30.5,939.5 Z"/></g>
<g><path style="opacity:1" fill="#6488d7" d="M 21.5,982.5 C 891.167,982.5 1760.83,982.5 2630.5,982.5C 2631.76,989.128 2632.76,995.794 2633.5,1002.5C 1761.5,1002.5 889.5,1002.5 17.5,1002.5C 18.4544,995.728 19.7878,989.061 21.5,982.5 Z"/></g>
<g><path style="opacity:1" fill="#6385d7" d="M 17.5,1002.5 C 889.5,1002.5 1761.5,1002.5 2633.5,1002.5C 2635.47,1010.66 2637.14,1018.99 2638.5,1027.5C 1763.57,1026.5 888.569,1026.17 13.5,1026.5C 14.4026,1018.42 15.7359,1010.42 17.5,1002.5 Z"/></g>
<g><path style="opacity:1" fill="#6180d6" d="M 13.5,1026.5 C 888.569,1026.17 1763.57,1026.5 2638.5,1027.5C 2640.93,1044.5 2643.26,1061.5 2645.5,1078.5C 1765.9,1077.5 886.236,1077.17 6.5,1077.5C 7.99842,1060.35 10.3318,1043.35 13.5,1026.5 Z"/></g>
<g><path style="opacity:1" fill="#5f7ad5" d="M 6.5,1077.5 C 886.236,1077.17 1765.9,1077.5 2645.5,1078.5C 2646.26,1089.2 2647.26,1099.87 2648.5,1110.5C 1766.83,1110.5 885.167,1110.5 3.5,1110.5C 3.90753,1099.43 4.90753,1088.43 6.5,1077.5 Z"/></g>
<g><path style="opacity:1" fill="#5f77d4" d="M 3.5,1110.5 C 885.167,1110.5 1766.83,1110.5 2648.5,1110.5C 2648.5,1113.83 2648.5,1117.17 2648.5,1120.5C 1766.5,1120.5 884.5,1120.5 2.5,1120.5C 2.25293,1117.06 2.58627,1113.73 3.5,1110.5 Z"/></g>
<g><path style="opacity:1" fill="#5e74d4" d="M 2.5,1120.5 C 884.5,1120.5 1766.5,1120.5 2648.5,1120.5C 2649.56,1128.32 2650.22,1136.32 2650.5,1144.5C 1766.96,1143.83 883.627,1144.5 0.5,1146.5C 1.12775,1137.83 1.79442,1129.16 2.5,1120.5 Z"/></g>
<g><path style="opacity:1" fill="#5d72d3" d="M 2650.5,1144.5 C 2650.67,1151.51 2651,1158.51 2651.5,1165.5C 1767.83,1165.5 884.167,1165.5 0.5,1165.5C 0.5,1159.17 0.5,1152.83 0.5,1146.5C 883.627,1144.5 1766.96,1143.83 2650.5,1144.5 Z"/></g>
<g><path style="opacity:1" fill="#5b6dd2" d="M -0.5,1165.5 C -0.166667,1165.5 0.166667,1165.5 0.5,1165.5C 884.167,1165.5 1767.83,1165.5 2651.5,1165.5C 2651.5,1180.17 2651.5,1194.83 2651.5,1209.5C 1767.5,1209.5 883.5,1209.5 -0.5,1209.5C -0.5,1194.83 -0.5,1180.17 -0.5,1165.5 Z"/></g>
<g><path style="opacity:1" fill="#5966d1" d="M -0.5,1209.5 C 883.5,1209.5 1767.5,1209.5 2651.5,1209.5C 2651.77,1227.69 2651.1,1245.69 2649.5,1263.5C 2649.5,1262.5 2649.5,1261.5 2649.5,1260.5C 1766.83,1260.5 884.167,1260.5 1.5,1260.5C 0.91512,1251.36 0.248453,1242.36 -0.5,1233.5C -0.5,1225.5 -0.5,1217.5 -0.5,1209.5 Z"/></g>
<g><path style="opacity:1" fill="#5861d0" d="M 1.5,1260.5 C 884.167,1260.5 1766.83,1260.5 2649.5,1260.5C 2649.5,1261.5 2649.5,1262.5 2649.5,1263.5C 2649.62,1270.53 2649.29,1277.53 2648.5,1284.5C 1766.83,1284.5 885.167,1284.5 3.5,1284.5C 3.5,1285.5 3.5,1286.5 3.5,1287.5C 2.13293,1278.7 1.46627,1269.7 1.5,1260.5 Z"/></g>
<g><path style="opacity:1" fill="#575ecf" d="M 2648.5,1284.5 C 2648.21,1291.02 2647.54,1297.35 2646.5,1303.5C 1765.83,1303.5 885.167,1303.5 4.5,1303.5C 3.72546,1298.2 3.39212,1292.87 3.5,1287.5C 3.5,1286.5 3.5,1285.5 3.5,1284.5C 885.167,1284.5 1766.83,1284.5 2648.5,1284.5 Z"/></g>
<g><path style="opacity:1" fill="#565ccf" d="M 4.5,1303.5 C 885.167,1303.5 1765.83,1303.5 2646.5,1303.5C 2646.35,1310.89 2645.68,1318.22 2644.5,1325.5C 1765.5,1325.5 886.5,1325.5 7.5,1325.5C 7.5,1326.5 7.5,1327.5 7.5,1328.5C 6.00235,1320.37 5.00235,1312.03 4.5,1303.5 Z"/></g>
<g><path style="opacity:1" fill="#5558cd" d="M 2644.5,1325.5 C 2643.71,1335.38 2642.37,1345.04 2640.5,1354.5C 2640.5,1353.5 2640.5,1352.5 2640.5,1351.5C 1763.83,1351.5 887.167,1351.5 10.5,1351.5C 8.77794,1344.06 7.77794,1336.4 7.5,1328.5C 7.5,1327.5 7.5,1326.5 7.5,1325.5C 886.5,1325.5 1765.5,1325.5 2644.5,1325.5 Z"/></g>
<g><path style="opacity:1" fill="#5355ca" d="M 10.5,1351.5 C 887.167,1351.5 1763.83,1351.5 2640.5,1351.5C 2640.5,1352.5 2640.5,1353.5 2640.5,1354.5C 2638.87,1368.22 2636.87,1381.89 2634.5,1395.5C 1762.17,1395.5 889.833,1395.5 17.5,1395.5C 14.2514,1381.11 11.9181,1366.44 10.5,1351.5 Z"/></g>
<g><path style="opacity:1" fill="#5253c6" d="M 17.5,1395.5 C 889.833,1395.5 1762.17,1395.5 2634.5,1395.5C 2633.5,1400.17 2632.5,1404.83 2631.5,1409.5C 1760.83,1409.5 890.167,1409.5 19.5,1409.5C 18.617,1404.87 17.9504,1400.2 17.5,1395.5 Z"/></g>
<g><path style="opacity:1" fill="#5052c4" d="M 19.5,1409.5 C 890.167,1409.5 1760.83,1409.5 2631.5,1409.5C 2630.14,1417.59 2628.48,1425.59 2626.5,1433.5C 1759.17,1432.83 892.166,1433.5 25.5,1435.5C 23.1361,1427.03 21.1361,1418.36 19.5,1409.5 Z"/></g>
<g><path style="opacity:1" fill="#5051c2" d="M 2626.5,1433.5 C 2625.96,1436.86 2625.29,1440.2 2624.5,1443.5C 1758.43,1443.83 892.431,1443.5 26.5,1442.5C 26.0074,1440.19 25.6741,1437.86 25.5,1435.5C 892.166,1433.5 1759.17,1432.83 2626.5,1433.5 Z"/></g>
<g><path style="opacity:1" fill="#4e4fbe" d="M 26.5,1442.5 C 892.431,1443.5 1758.43,1443.83 2624.5,1443.5C 2620.77,1460.43 2616.43,1477.1 2611.5,1493.5C 2183.17,1492.17 1754.5,1491.5 1325.5,1491.5C 896.667,1491.5 468,1491.83 39.5,1492.5C 34.5653,1476.1 30.232,1459.43 26.5,1442.5 Z"/></g>
<g><path style="opacity:1" fill="#4c4bb9" d="M 2611.5,1493.5 C 2608.59,1506.16 2604.92,1518.49 2600.5,1530.5C 1750.5,1529.83 900.833,1530.5 51.5,1532.5C 46.8992,1519.45 42.8992,1506.12 39.5,1492.5C 468,1491.83 896.667,1491.5 1325.5,1491.5C 1754.5,1491.5 2183.17,1492.17 2611.5,1493.5 Z"/></g>
<g><path style="opacity:1" fill="#4b4ab5" d="M 2600.5,1530.5 C 2599.9,1533.97 2598.9,1537.3 2597.5,1540.5C 1749.67,1540.17 902,1540.5 54.5,1541.5C 52.9281,1538.78 51.9281,1535.78 51.5,1532.5C 900.833,1530.5 1750.5,1529.83 2600.5,1530.5 Z"/></g>
<g><path style="opacity:1" fill="#4947b1" d="M 2597.5,1540.5 C 2591.63,1559.22 2584.96,1577.56 2577.5,1595.5C 1742.83,1595.5 908.167,1595.5 73.5,1595.5C 66.3758,1577.79 60.0425,1559.79 54.5,1541.5C 902,1540.5 1749.67,1540.17 2597.5,1540.5 Z"/></g>
<g><path style="opacity:1" fill="#4745ad" d="M 73.5,1595.5 C 908.167,1595.5 1742.83,1595.5 2577.5,1595.5C 2575.93,1601.88 2573.6,1607.88 2570.5,1613.5C 1740.67,1612.5 910.667,1612.17 80.5,1612.5C 77.6004,1607.15 75.2671,1601.49 73.5,1595.5 Z"/></g>
<g><path style="opacity:1" fill="#4543aa" d="M 80.5,1612.5 C 910.667,1612.17 1740.67,1612.5 2570.5,1613.5C 2567.45,1623.32 2563.45,1632.65 2558.5,1641.5C 1736.5,1641.5 914.5,1641.5 92.5,1641.5C 87.7355,1632.22 83.7355,1622.55 80.5,1612.5 Z"/></g>
<g><path style="opacity:1" fill="#4542a7" d="M 92.5,1641.5 C 914.5,1641.5 1736.5,1641.5 2558.5,1641.5C 2557.35,1645.79 2555.69,1649.79 2553.5,1653.5C 1735,1653.17 916.666,1653.5 98.5,1654.5C 96.1299,1650.41 94.1299,1646.08 92.5,1641.5 Z"/></g>
<g><path style="opacity:1" fill="#4340a4" d="M 2553.5,1653.5 C 2548.34,1665.81 2542.68,1677.81 2536.5,1689.5C 1729.17,1689.5 921.833,1689.5 114.5,1689.5C 108.78,1678.01 103.447,1666.34 98.5,1654.5C 916.666,1653.5 1735,1653.17 2553.5,1653.5 Z"/></g>
<g><path style="opacity:1" fill="#423fa2" d="M 114.5,1689.5 C 921.833,1689.5 1729.17,1689.5 2536.5,1689.5C 2535.67,1692.48 2534.34,1695.15 2532.5,1697.5C 2130.5,1696.17 1728.17,1695.5 1325.5,1695.5C 923,1695.5 520.667,1695.83 118.5,1696.5C 116.929,1694.36 115.596,1692.03 114.5,1689.5 Z"/></g>
<g><path style="opacity:1" fill="#413d9f" d="M 2532.5,1697.5 C 2526.26,1710.99 2519.26,1723.99 2511.5,1736.5C 1720.83,1735.83 930.499,1736.5 140.5,1738.5C 132.66,1724.82 125.327,1710.82 118.5,1696.5C 520.667,1695.83 923,1695.5 1325.5,1695.5C 1728.17,1695.5 2130.5,1696.17 2532.5,1697.5 Z"/></g>
<g><path style="opacity:1" fill="#3f3a9a" d="M 2511.5,1736.5 C 2506.63,1747.02 2500.96,1757.02 2494.5,1766.5C 1715.17,1765.17 935.833,1765.17 156.5,1766.5C 150.803,1757.45 145.469,1748.11 140.5,1738.5C 930.499,1736.5 1720.83,1735.83 2511.5,1736.5 Z"/></g>
<g><path style="opacity:1" fill="#3e3998" d="M 2494.5,1766.5 C 2492.67,1770.84 2490.33,1774.84 2487.5,1778.5C 1713,1777.5 938.334,1777.17 163.5,1777.5C 160.806,1774.12 158.473,1770.46 156.5,1766.5C 935.833,1765.17 1715.17,1765.17 2494.5,1766.5 Z"/></g>
<g><path style="opacity:1" fill="#3d3796" d="M 163.5,1777.5 C 938.334,1777.17 1713,1777.5 2487.5,1778.5C 2484.53,1784.12 2481.19,1789.46 2477.5,1794.5C 1709.67,1793.5 941.667,1793.17 173.5,1793.5C 169.669,1788.51 166.336,1783.18 163.5,1777.5 Z"/></g>
<g><path style="opacity:1" fill="#3b3592" d="M 173.5,1793.5 C 941.667,1793.17 1709.67,1793.5 2477.5,1794.5C 2468.14,1810.56 2457.81,1825.89 2446.5,1840.5C 1699.33,1840.17 952.333,1840.5 205.5,1841.5C 193.664,1826.32 182.997,1810.32 173.5,1793.5 Z"/></g>
<g><path style="opacity:1" fill="#39328d" d="M 2446.5,1840.5 C 2438.81,1853.22 2430.14,1865.22 2420.5,1876.5C 1690.5,1875.17 960.5,1875.17 230.5,1876.5C 221.433,1865.37 213.1,1853.7 205.5,1841.5C 952.333,1840.5 1699.33,1840.17 2446.5,1840.5 Z"/></g>
<g><path style="opacity:1" fill="#38318a" d="M 2420.5,1876.5 C 2417.88,1881.41 2414.55,1885.75 2410.5,1889.5C 1687.17,1888.17 963.833,1888.17 240.5,1889.5C 236.936,1885.39 233.603,1881.05 230.5,1876.5C 960.5,1875.17 1690.5,1875.17 2420.5,1876.5 Z"/></g>
<g><path style="opacity:1" fill="#362e86" d="M 2410.5,1889.5 C 2398.23,1906.1 2385.23,1922.1 2371.5,1937.5C 1674.33,1936.5 977,1936.17 279.5,1936.5C 265.399,1921.73 252.399,1906.07 240.5,1889.5C 963.833,1888.17 1687.17,1888.17 2410.5,1889.5 Z"/></g>
<g><path style="opacity:1" fill="#342c82" d="M 279.5,1936.5 C 977,1936.17 1674.33,1936.5 2371.5,1937.5C 2365.51,1944.82 2359.17,1951.82 2352.5,1958.5C 1667.83,1957.17 983.167,1957.17 298.5,1958.5C 291.448,1951.78 285.115,1944.45 279.5,1936.5 Z"/></g>
<g><path style="opacity:1" fill="#332a7e" d="M 2352.5,1958.5 C 2345.51,1966.83 2338.17,1974.83 2330.5,1982.5C 1660.5,1982.5 990.5,1982.5 320.5,1982.5C 312.826,1974.83 305.493,1966.83 298.5,1958.5C 983.167,1957.17 1667.83,1957.17 2352.5,1958.5 Z"/></g>
<g><path style="opacity:1" fill="#32297a" d="M 320.5,1982.5 C 990.5,1982.5 1660.5,1982.5 2330.5,1982.5C 2324.5,1989.17 2318.17,1995.5 2311.5,2001.5C 1654.17,2001.5 996.833,2001.5 339.5,2001.5C 332.833,1995.5 326.5,1989.17 320.5,1982.5 Z"/></g>
<g><path style="opacity:1" fill="#312877" d="M 339.5,2001.5 C 996.833,2001.5 1654.17,2001.5 2311.5,2001.5C 2307.17,2006.5 2302.5,2011.17 2297.5,2015.5C 1649.5,2015.5 1001.5,2015.5 353.5,2015.5C 348.5,2011.17 343.833,2006.5 339.5,2001.5 Z"/></g>
<g><path style="opacity:1" fill="#2f2773" d="M 353.5,2015.5 C 1001.5,2015.5 1649.5,2015.5 2297.5,2015.5C 2287.1,2027.24 2275.77,2037.9 2263.5,2047.5C 1638.17,2047.5 1012.83,2047.5 387.5,2047.5C 375.839,2037.17 364.505,2026.5 353.5,2015.5 Z"/></g>
<g><path style="opacity:1" fill="#2d266e" d="M 387.5,2047.5 C 1012.83,2047.5 1638.17,2047.5 2263.5,2047.5C 2256.16,2054.84 2248.49,2061.84 2240.5,2068.5C 1630.83,2067.17 1021.17,2067.17 411.5,2068.5C 402.882,2062.22 394.882,2055.22 387.5,2047.5 Z"/></g>
<g><path style="opacity:1" fill="#2c256b" d="M 2240.5,2068.5 C 2236.35,2072.4 2232.02,2076.07 2227.5,2079.5C 1626.5,2079.5 1025.5,2079.5 424.5,2079.5C 419.848,2076.18 415.515,2072.51 411.5,2068.5C 1021.17,2067.17 1630.83,2067.17 2240.5,2068.5 Z"/></g>
<g><path style="opacity:1" fill="#2c2469" d="M 424.5,2079.5 C 1025.5,2079.5 1626.5,2079.5 2227.5,2079.5C 2222.72,2083.73 2217.72,2087.73 2212.5,2091.5C 1621.17,2091.5 1029.83,2091.5 438.5,2091.5C 433.514,2087.85 428.847,2083.85 424.5,2079.5 Z"/></g>
<g><path style="opacity:1" fill="#2a2365" d="M 438.5,2091.5 C 1029.83,2091.5 1621.17,2091.5 2212.5,2091.5C 2202.1,2100.9 2191.1,2109.56 2179.5,2117.5C 1610.17,2117.5 1040.83,2117.5 471.5,2117.5C 460.279,2109.06 449.279,2100.4 438.5,2091.5 Z"/></g>
<g><path style="opacity:1" fill="#282260" d="M 471.5,2117.5 C 1040.83,2117.5 1610.17,2117.5 2179.5,2117.5C 2165.55,2129.14 2150.88,2139.81 2135.5,2149.5C 1595.5,2149.5 1055.5,2149.5 515.5,2149.5C 500.441,2139.31 485.774,2128.64 471.5,2117.5 Z"/></g>
<g><path style="opacity:1" fill="#26205a" d="M 515.5,2149.5 C 1055.5,2149.5 1595.5,2149.5 2135.5,2149.5C 2119.72,2161.23 2103.39,2172.23 2086.5,2182.5C 1579.5,2182.5 1072.5,2182.5 565.5,2182.5C 548.139,2172.49 531.473,2161.49 515.5,2149.5 Z"/></g>
<g><path style="opacity:1" fill="#241e54" d="M 565.5,2182.5 C 1072.5,2182.5 1579.5,2182.5 2086.5,2182.5C 2069.37,2193.91 2051.7,2204.57 2033.5,2214.5C 1561.83,2214.5 1090.17,2214.5 618.5,2214.5C 599.995,2205.09 582.328,2194.42 565.5,2182.5 Z"/></g>
<g><path style="opacity:1" fill="#221c4e" d="M 618.5,2214.5 C 1090.17,2214.5 1561.83,2214.5 2033.5,2214.5C 2010.14,2228.18 1986.14,2240.85 1961.5,2252.5C 1537.5,2252.5 1113.5,2252.5 689.5,2252.5C 665.031,2241.1 641.364,2228.44 618.5,2214.5 Z"/></g>
<g><path style="opacity:1" fill="#201b48" d="M 689.5,2252.5 C 1113.5,2252.5 1537.5,2252.5 1961.5,2252.5C 1947.6,2260.28 1933.27,2267.28 1918.5,2273.5C 1523.5,2272.17 1128.5,2272.17 733.5,2273.5C 718.521,2267.01 703.854,2260.01 689.5,2252.5 Z"/></g>
<g><path style="opacity:1" fill="#1f1a45" d="M 1918.5,2273.5 C 1909.62,2277.77 1900.62,2281.77 1891.5,2285.5C 1514,2284.5 1136.33,2284.17 758.5,2284.5C 749.841,2281.4 741.507,2277.73 733.5,2273.5C 1128.5,2272.17 1523.5,2272.17 1918.5,2273.5 Z"/></g>
<g><path style="opacity:1" fill="#1d1941" d="M 758.5,2284.5 C 1136.33,2284.17 1514,2284.5 1891.5,2285.5C 1863.56,2297.48 1835.23,2308.48 1806.5,2318.5C 1485.67,2317.5 1164.67,2317.17 843.5,2317.5C 814.552,2307.85 786.219,2296.85 758.5,2284.5 Z"/></g>
<g><path style="opacity:1" fill="#1b173b" d="M 843.5,2317.5 C 1164.67,2317.17 1485.67,2317.5 1806.5,2318.5C 1772.27,2330.58 1737.61,2341.24 1702.5,2350.5C 1451.17,2349.17 1199.83,2349.17 948.5,2350.5C 912.844,2341.28 877.844,2330.28 843.5,2317.5 Z"/></g>
<g><path style="opacity:1" fill="#1a1636" d="M 948.5,2350.5 C 1199.83,2349.17 1451.17,2349.17 1702.5,2350.5C 1662.62,2361.41 1622.29,2370.41 1581.5,2377.5C 1411.17,2376.17 1240.83,2376.17 1070.5,2377.5C 1029.41,2370.39 988.74,2361.39 948.5,2350.5 Z"/></g>
<g><path style="opacity:1" fill="#1a1733" d="M 1070.5,2377.5 C 1240.83,2376.17 1411.17,2376.17 1581.5,2377.5C 1411.16,2406.83 1240.82,2406.83 1070.5,2377.5 Z"/></g>
</svg>
