<svg width="18" height="18" viewBox="0 0 18 18" fill="none" xmlns="http://www.w3.org/2000/svg">
<path d="M14.7433 0H6.56368C4.76777 0 3.30697 1.4608 3.30697 3.25671V3.30697H3.25671C1.4608 3.30697 0 4.76777 0 6.56368V14.7433C0 16.5392 1.4608 18 3.25671 18H11.4363C13.2273 18 14.6843 16.5392 14.6843 14.7433V14.684H14.7433C16.5392 14.684 18 13.227 18 11.4363V3.25671C18 1.4608 16.5392 0 14.7433 0ZM14.0638 14.7433C14.0638 16.197 12.885 17.3794 11.4363 17.3794H3.25671C1.80304 17.3794 0.620561 16.1966 0.620561 14.7433V6.56368C0.620561 5.11001 1.80335 3.92753 3.25671 3.92753H3.30697V11.4363C3.30697 13.227 4.76777 14.684 6.56368 14.684H14.0638V14.7433ZM17.3794 11.4363C17.3794 12.885 16.1966 14.0635 14.7433 14.0635H6.56368C5.11001 14.0635 3.92753 12.885 3.92753 11.4363V3.25671C3.92753 1.80304 5.11032 0.620561 6.56368 0.620561H14.7433C16.197 0.620561 17.3794 1.80335 17.3794 3.25671V11.4363Z" fill="white"/>
</svg>
