<?xml version="1.0" encoding="UTF-8"?>
<!DOCTYPE svg PUBLIC "-//W3C//DTD SVG 1.1//EN" "http://www.w3.org/Graphics/SVG/1.1/DTD/svg11.dtd">
<svg xmlns="http://www.w3.org/2000/svg" version="1.1" width="60px" height="60px" style="shape-rendering:geometricPrecision; text-rendering:geometricPrecision; image-rendering:optimizeQuality; fill-rule:evenodd; clip-rule:evenodd" xmlns:xlink="http://www.w3.org/1999/xlink">
<g><path style="opacity:0.385" fill="#fefffe" d="M 0.5,-0.5 C 19.8333,-0.5 39.1667,-0.5 58.5,-0.5C 58.5,0.166667 58.8333,0.5 59.5,0.5C 59.5,19.8333 59.5,39.1667 59.5,58.5C 58.8333,58.5 58.5,58.8333 58.5,59.5C 39.1667,59.5 19.8333,59.5 0.5,59.5C 0.5,58.8333 0.166667,58.5 -0.5,58.5C -0.5,39.1667 -0.5,19.8333 -0.5,0.5C 0.166667,0.5 0.5,0.166667 0.5,-0.5 Z M 10.5,8.5 C 17.2248,8.20441 18.8915,10.8711 15.5,16.5C 8.40888,17.5305 6.74221,14.8639 10.5,8.5 Z M 8.5,22.5 C 11.1667,22.5 13.8333,22.5 16.5,22.5C 16.5,31.8333 16.5,41.1667 16.5,50.5C 13.8333,50.5 11.1667,50.5 8.5,50.5C 8.5,41.1667 8.5,31.8333 8.5,22.5 Z M 22.5,22.5 C 25.1667,22.5 27.8333,22.5 30.5,22.5C 30.3433,23.8734 30.51,25.2068 31,26.5C 34.7434,22.7406 39.2434,21.5739 44.5,23C 46.3333,24.1667 47.8333,25.6667 49,27.5C 50.3961,35.0804 50.8961,42.747 50.5,50.5C 47.8333,50.5 45.1667,50.5 42.5,50.5C 42.6662,44.4908 42.4995,38.4908 42,32.5C 38.0154,27.1388 34.3488,27.4721 31,33.5C 30.5006,39.1569 30.3339,44.8236 30.5,50.5C 27.8333,50.5 25.1667,50.5 22.5,50.5C 22.5,41.1667 22.5,31.8333 22.5,22.5 Z"/></g>
</svg>
