<?xml version="1.0" encoding="UTF-8"?>
<!DOCTYPE svg PUBLIC "-//W3C//DTD SVG 1.1//EN" "http://www.w3.org/Graphics/SVG/1.1/DTD/svg11.dtd">
<svg xmlns="http://www.w3.org/2000/svg" version="1.1" width="512px" height="478px" style="shape-rendering:geometricPrecision; text-rendering:geometricPrecision; image-rendering:optimizeQuality; fill-rule:evenodd; clip-rule:evenodd" xmlns:xlink="http://www.w3.org/1999/xlink">
<g><path style="opacity:0.392" fill="#fefffe" d="M -0.5,-0.5 C 53.8333,-0.5 108.167,-0.5 162.5,-0.5C 199.324,48.4702 236.158,97.4702 273,146.5C 316.042,97.6284 358.876,48.6284 401.5,-0.5C 428.167,-0.5 454.833,-0.5 481.5,-0.5C 424.523,64.8137 367.523,130.147 310.5,195.5C 377.171,284.16 444.171,372.493 511.5,460.5C 511.5,461.167 511.5,461.833 511.5,462.5C 458.499,462.667 405.499,462.5 352.5,462C 311.667,408.5 270.833,355 230,301.5C 183.167,355 136.333,408.5 89.5,462C 62.8333,462.667 36.1667,462.667 9.5,462C 70.5,392.333 131.5,322.667 192.5,253C 128.686,168.697 64.3529,84.8633 -0.5,1.5C -0.5,0.833333 -0.5,0.166667 -0.5,-0.5 Z M 92.5,45.5 C 107.328,44.3389 122.328,44.1723 137.5,45C 230.833,168 324.167,291 417.5,414C 403.155,414.833 388.822,414.666 374.5,413.5C 280.828,290.506 186.828,167.839 92.5,45.5 Z"/></g>
</svg>
